<?xml version="1.0" ?><svg enable-background="new 0 0 515.91 728.5" height="512" id="Layer_1" version="1.1" viewBox="0 0 512.00003 512" width="512" xml:space="preserve" xmlns="http://www.w3.org/2000/svg" xmlns:cc="http://creativecommons.org/ns#" xmlns:dc="http://purl.org/dc/elements/1.1/" xmlns:inkscape="http://www.inkscape.org/namespaces/inkscape" xmlns:rdf="http://www.w3.org/1999/02/22-rdf-syntax-ns#" xmlns:sodipodi="http://sodipodi.sourceforge.net/DTD/sodipodi-0.dtd" xmlns:svg="http://www.w3.org/2000/svg"><defs id="defs7"/><g id="g1059" transform="matrix(1.0368856,0,0,1.0368856,-5454.5826,-2672.5797)"><path d="m 5560.8,2992.9 68.9,-166.3 c -19.4,-4.5 -42.1,-7.1 -68.9,-7.1 -26.8,0 -49.5,2.7 -68.9,7.2 l 68.9,166.2 z" id="path1061" style="fill:#cfcccb"/><g id="g1063"><path d="m 5491.9,2826.6 c -102.6,24.1 -109.2,102 -109.2,127.3 0,30.1 50.7,38.9 178,38.9 l -68.8,-166.2 z" id="path1065" style="fill:#e12c27"/><path d="m 5629.8,2826.5 -68.9,166.3 c 127.3,0 178,-6.7 178,-38.9 0,-27 -6.6,-103.6 -109.1,-127.4 z" id="path1067" style="fill:#e12c27"/></g><path d="m 5560.9,2833.2 c 18.5,0 35.6,-3.9 49.5,-10.3 v -76.7 h -98.9 v 76.7 c 13.8,6.4 30.8,10.3 49.4,10.3 z" id="path1069" style="fill:#fece9b"/><path d="m 5610.4,2746.2 h -98.9 v 34.3 c 13.6,16.2 30.8,27 49.5,27 18.7,0 35.9,-10.8 49.5,-27 v -34.3 z" id="path1071" style="fill:#dcab62"/><path d="m 5641,2686.2 c 0,49.4 -35.9,109.8 -80.2,109.8 -44.3,0 -80.2,-60.3 -80.2,-109.8 0,-49.4 35.9,-89.4 80.2,-89.4 44.3,0 80.2,40 80.2,89.4 z" id="path1073" style="fill:#fece9b"/><path d="m 5560.9,2833.2 c -6.8,0 -13.3,-0.2 -19.7,-1.1 l 5.4,36.5 h 28.4 l 5.4,-36.5 c -6.2,0.9 -12.8,1.1 -19.5,1.1 z" id="path1075" style="fill:#14648a"/><polygon id="polygon1077" points="5575.1,2868.5 5546.6,2868.5 5539.8,2942.2 5560.8,2993 5582,2942.2 " style="fill:#199dcc"/><path d="m 5637.5,2660 c -10,-36.6 -40.5,-63.2 -76.7,-63.2 -36.3,0 -67,26.9 -76.8,63.8 12.1,-19.2 42,-7 76.9,-7 34.6,0.1 64.2,-12.2 76.6,6.4 z" id="path1079" style="fill:#673534"/><g id="g1081"><path d="m 5433.6,2994.9 h -85.3 c -5.5,0 -10,-4.5 -10,-10 v -110.7 c 0,-5.5 4.5,-10 10,-10 h 45.9 c 27.3,0 49.5,22.1 49.5,49.5 v 71.3 c -0.1,5.5 -4.6,9.9 -10.1,9.9 z" id="path1083" style="fill:#cecccb"/><g id="g1085"><path d="m 5359.1,2894 h 63.7 c 2,0 3.6,-1.5 3.6,-3.5 0,-2 -1.6,-3.5 -3.6,-3.5 h -63.7 c -2,0 -3.6,1.5 -3.6,3.5 0,2 1.6,3.5 3.6,3.5 z" id="path1087" style="fill:#989798"/><path d="m 5422.8,2913 h -63.7 c -2,0 -3.6,2 -3.6,4 0,2 1.6,4 3.6,4 h 63.7 c 2,0 3.6,-2 3.6,-4 0,-2 -1.6,-4 -3.6,-4 z" id="path1089" style="fill:#989798"/><path d="m 5422.8,2938 h -63.7 c -2,0 -3.6,2.5 -3.6,4.5 0,2 1.6,4.5 3.6,4.5 h 63.7 c 2,0 3.6,-2.5 3.6,-4.5 0,-2 -1.6,-4.5 -3.6,-4.5 z" id="path1091" style="fill:#989798"/><path d="m 5422.8,2966 h -63.7 c -2,0 -3.6,1.5 -3.6,3.5 0,2 1.6,3.5 3.6,3.5 h 63.7 c 2,0 3.6,-1.5 3.6,-3.5 0,-2 -1.6,-3.5 -3.6,-3.5 z" id="path1093" style="fill:#989798"/></g></g><path d="m 5465.5,2992 v -15.8 h -152.9 v 15.6 c 0,4.4 -1.9,8.7 -5.2,11.6 l -18.2,16.3 c -3.3,3 -5.2,7.2 -5.2,11.6 v 10 c 0,5.9 4.8,10.7 10.7,10.7 H 5482 c 5.9,0 10.7,-4.8 10.7,-10.7 V 3031 c 0,-4.3 -1.8,-8.4 -4.9,-11.3 l -17.3,-16.3 c -3.2,-3 -5,-7.1 -5,-11.4 z" id="path1095" style="fill:#515b5d"/><g id="g1097"><rect height="31.1" id="rect1099" style="fill:#989798" width="204.2" x="5288.3999" y="2955"/><ellipse cx="5491.3999" cy="2970.6001" d="m 5498.2999,2970.6001 c 0,8.6156 -3.0892,15.6 -6.9,15.6 -3.8108,0 -6.9,-6.9844 -6.9,-15.6 0,-8.6156 3.0892,-15.6 6.9,-15.6 3.8108,0 6.9,6.9844 6.9,15.6 z" id="ellipse1101" rx="6.9000001" ry="15.6" style="fill:#515b5d"/><path d="m 5295.4,2970.6 c 0,-8.6 -3.1,-15.6 -7,-15.6 -3.9,0 -7,7 -7,15.6 0,5.3 1.2,9.9 3,12.8 v 12.5 l -7.3,7.3 c -1.5,1.5 -1.5,3.8 0,5.3 1.5,1.5 3.8,1.5 5.3,0 l 7.1,-7.1 c 1.5,-1.5 2.4,-3.6 2.4,-5.8 V 2984 c 2.1,-2.7 3.5,-7.7 3.5,-13.4 z" id="path1103" style="fill:#515b5d"/></g><g id="g1105"><g id="g1107"><circle cx="5335.6001" cy="3008.8" d="m 5344.8001,3008.8 c 0,5.0811 -4.119,9.2 -9.2,9.2 -5.081,0 -9.2,-4.1189 -9.2,-9.2 0,-5.081 4.119,-9.2 9.2,-9.2 5.081,0 9.2,4.119 9.2,9.2 z" id="circle1109" r="9.1999998" style="fill:#cecccb"/><circle cx="5361.8999" cy="3008.8" d="m 5371.0999,3008.8 c 0,5.0811 -4.119,9.2 -9.2,9.2 -5.081,0 -9.2,-4.1189 -9.2,-9.2 0,-5.081 4.119,-9.2 9.2,-9.2 5.081,0 9.2,4.119 9.2,9.2 z" id="circle1111" r="9.1999998" style="fill:#cecccb"/><circle cx="5388.2998" cy="3008.8" d="m 5397.4998,3008.8 c 0,5.0811 -4.119,9.2 -9.2,9.2 -5.081,0 -9.2,-4.1189 -9.2,-9.2 0,-5.081 4.119,-9.2 9.2,-9.2 5.081,0 9.2,4.119 9.2,9.2 z" id="circle1113" r="9.1999998" style="fill:#cecccb"/><circle cx="5441" cy="3008.8" d="m 5450.2,3008.8 c 0,5.0811 -4.119,9.2 -9.2,9.2 -5.081,0 -9.2,-4.1189 -9.2,-9.2 0,-5.081 4.119,-9.2 9.2,-9.2 5.081,0 9.2,4.119 9.2,9.2 z" id="circle1115" r="9.1999998" style="fill:#cecccb"/><circle cx="5414.6001" cy="3008.8" d="m 5423.8001,3008.8 c 0,5.0811 -4.119,9.2 -9.2,9.2 -5.081,0 -9.2,-4.1189 -9.2,-9.2 0,-5.081 4.119,-9.2 9.2,-9.2 5.081,0 9.2,4.119 9.2,9.2 z" id="circle1117" r="9.1999998" style="fill:#cecccb"/></g><g id="g1119"><circle cx="5452.7998" cy="3030.8999" d="m 5461.9998,3030.8999 c 0,5.081 -4.119,9.2 -9.2,9.2 -5.081,0 -9.2,-4.119 -9.2,-9.2 0,-5.081 4.119,-9.2 9.2,-9.2 5.081,0 9.2,4.119 9.2,9.2 z" id="circle1121" r="9.1999998" style="fill:#cecccb"/><circle cx="5323.7998" cy="3030.8999" d="m 5332.9998,3030.8999 c 0,5.081 -4.119,9.2 -9.2,9.2 -5.081,0 -9.2,-4.119 -9.2,-9.2 0,-5.081 4.119,-9.2 9.2,-9.2 5.081,0 9.2,4.119 9.2,9.2 z" id="circle1123" r="9.1999998" style="fill:#cecccb"/><path d="m 5427,3021.7 h -78 v 0 c -4.8,0.3 -8.6,4.3 -8.6,9.1 0,4.9 3.8,8.9 8.6,9.1 v 0 h 78 c 5.1,0 9.2,-4.1 9.2,-9.2 0,-4.8 -4.1,-9 -9.2,-9 z" id="path1125" style="fill:#cecccb"/></g></g></g></svg>