<?xml version="1.0" ?><!DOCTYPE svg  PUBLIC '-//W3C//DTD SVG 1.1//EN'  'http://www.w3.org/Graphics/SVG/1.1/DTD/svg11.dtd'><svg enable-background="new 0 0 256 256" height="256px" id="Layer_1" version="1.1" viewBox="0 0 256 256" width="256px" xml:space="preserve" xmlns="http://www.w3.org/2000/svg" xmlns:xlink="http://www.w3.org/1999/xlink"><g><g><path d="M247.818,90.128c-10.7-10.724-41.911-10.002-53.963-1.813l0.115,0.625c0.385,2.174-1.092,4.245-3.3,4.625     c-2.207,0.38-4.31-1.076-4.695-3.25c-0.09-0.494-0.181-0.986-0.273-1.477c-11.593-8.971-41.859-8.735-53.641-0.343v4.188     c-2.682-0.488-5.436-0.488-8.122,0.001v-3.036v-0.021v-1.045c-11.644-8.442-41.88-8.746-53.62,0.142     c-0.099,0.529-0.198,1.059-0.294,1.591c-0.386,2.174-2.488,3.63-4.695,3.25c-2.208-0.38-3.685-2.45-3.3-4.625l0.101-0.553     c-11.955-8.253-43.212-9.031-53.952,1.749c-0.101,0.273-0.202,0.545-0.301,0.819c-0.744,2.08-3.06,3.171-5.171,2.438     c-2.111-0.733-3.219-3.014-2.475-5.094c18.741-51.81,67.921-77.044,123.707-78.674V4.002c0-2.209,1.818-4,4.061-4     s4.061,1.791,4.061,4v5.623c55.786,1.63,104.966,26.864,123.707,78.674c0.745,2.079-0.363,4.36-2.475,5.094     c-2.111,0.733-4.427-0.358-5.171-2.438C248.023,90.678,247.92,90.403,247.818,90.128L247.818,90.128z" fill="#2B79C2"/><path d="M215,168.108v81.891c0,3.314-2.686,6-6,6H47c-3.314,0-6-2.686-6-6v-81.891l-15.74,9.232l-7.055-12.031     l39.875-23.387V104.99h26v21.683l40.392-23.69c2.291-1.344,5.034-1.23,7.155,0.058l106.168,62.267l-7.055,12.031L215,168.108     L215,168.108z M103,166.998h49.999v77H203v-82.929l-75-43.987l-75,43.987v82.929h50V166.998L103,166.998z" fill="#3B4652"/></g></g></svg>